<?xml version="1.0" encoding="utf-8"?>
<!DOCTYPE svg PUBLIC "-//W3C//DTD SVG 20010904//EN" "http://www.w3.org/TR/2001/REC-SVG-20010904/DTD/svg10.dtd">
<svg version="1.0" xmlns="http://www.w3.org/2000/svg" width="445px" height="422px" viewBox="0 0 445 422" preserveAspectRatio="xMidYMid meet">
 <g fill="#f6f8fb">
  <path d="M0 211 l0 -211 222.5 0 222.5 0 0 211 0 211 -222.5 0 -222.5 0 0 -211z m124.3 165.8 l28.5 -27.8 26.4 0 c19.6 0 27.8 -0.4 31.8 -1.4 15.1 -4 28.8 -17.6 32 -32 0.6 -2.7 1.1 -11.8 1.1 -20.3 l0 -15.5 5.7 0.7 5.7 0.6 30.5 30.4 c16.8 16.7 32 31 33.8 31.9 1.8 0.9 4.8 1.8 6.8 1.9 3.4 0.2 3.6 0 5.6 -4.8 2 -4.6 2.2 -7.4 2.6 -32.5 l0.4 -27.5 15.2 -0.2 c16.3 -0.2 23.3 -1.6 32.1 -6.8 7.1 -4.1 19.5 -18 19.5 -21.9 0 -0.5 -1.7 1.7 -3.8 5 -3.9 5.9 -11 13.1 -15.1 15.3 -1.8 1 -2.1 0.9 -2.1 -0.9 0 -1.1 0.5 -2 1.1 -2 0.6 0 2 -1.1 3.1 -2.5 1.1 -1.4 2.6 -2.5 3.4 -2.5 0.8 0 1.4 -0.6 1.4 -1.4 0 -0.8 1.1 -2.3 2.5 -3.4 1.4 -1.1 2.5 -2.5 2.5 -3.1 0 -0.6 0.4 -1.1 0.9 -1.1 0.5 0 1.1 -0.8 1.4 -1.7 0.3 -1 1.7 -5.1 3.1 -9.1 1.4 -4.1 2.6 -8.7 2.6 -10.3 0 -3.2 2.5 -4.1 3.3 -1.1 0.3 0.9 0.5 -36.1 0.5 -82.3 0 -46.2 -0.2 -83.2 -0.5 -82.3 -0.8 3.2 -3.3 2.1 -3.3 -1.4 0 -6.2 -5.9 -22.3 -8.7 -24.1 -0.7 -0.4 -1.3 -1.2 -1.3 -1.6 0 -1.1 -9 -10.1 -10.1 -10.1 -0.5 0 -0.9 -0.7 -0.9 -1.5 0 -0.8 -0.8 -1.5 -1.7 -1.5 -1 0 -4.2 -0.9 -7.1 -2 -2.9 -1.1 -6.1 -2 -7.2 -2 -1.1 0 -2 -0.4 -2 -0.8 0 -0.5 -1.3 -0.7 -3 -0.4 -2.3 0.3 -3 0 -3 -1.2 0 -1.4 0.7 -1.6 3.8 -1.1 19.3 3.3 29.3 9.9 37.9 25.3 3.9 6.7 4.4 6.3 0.8 -0.7 -3.8 -7.6 -12.7 -16.6 -19.8 -20.1 -12.5 -6.1 -11.6 -6.1 -127.3 -5.8 l-104.9 0.3 -6.5 2.3 c-3.6 1.3 -8.3 3.4 -10.5 4.7 -6 3.4 -13.8 11.7 -17.3 18.3 -5.7 10.8 -6 13.3 -6.8 55 l-0.7 38.2 -20.1 0 c-29.3 0 -37.3 2.2 -48.6 13.3 -4.8 4.8 -11 14.8 -11 17.9 0 0.7 1.3 -1.5 2.9 -4.8 3.3 -7 8.5 -13.2 14.7 -17.5 4.8 -3.2 6.4 -3.6 6.4 -1.4 0 0.8 -0.7 1.5 -1.5 1.5 -0.8 0 -1.5 0.5 -1.5 1 0 0.6 -0.4 1 -0.9 1 -0.4 0 -3.3 2.4 -6.2 5.4 -5.8 5.7 -10.5 14.1 -11.5 20.6 -0.7 4.1 -2.9 5.4 -3.7 2.3 -0.3 -1 -0.5 28.8 -0.5 66.2 0 37.4 0.2 67.2 0.5 66.3 0.8 -3.2 3 -1.9 3.6 2 0.8 6.3 6.3 17.1 10.5 20.5 1.2 1 2.2 2.5 2.2 3.3 0 0.8 0.9 1.4 2 1.4 1.1 0 2 0.5 2 1 0 0.6 0.7 1 1.5 1 0.8 0 1.5 0.7 1.5 1.5 0 0.9 0.9 1.5 2.5 1.5 1.6 0 2.5 0.6 2.5 1.5 0 2.4 -1.8 1.8 -9.1 -3 -7 -4.7 -12.4 -11 -15.9 -18.6 -1.1 -2.4 -1.7 -3.3 -1.4 -1.9 1.8 7.5 10.2 17.7 18.8 22.9 7.2 4.3 14.7 6.1 26.2 6.1 l9.2 0 0.4 23.8 c0.3 13 0.8 24.5 1.3 25.5 0.8 1.9 9.3 6.8 11.2 6.4 0.6 -0.1 13.9 -12.7 29.6 -27.9z"/>
  <path d="M89.5 401.8 c-2.2 -1.1 -4.3 -2.6 -4.7 -3.2 -1.3 -1.8 -0.9 -3.6 0.7 -3.6 0.8 0 1.5 0.5 1.5 1 0 0.6 1.6 1.8 3.5 2.7 l3.6 1.7 12.2 -12.2 c9 -9 12.9 -12.2 14.7 -12.2 2.1 0 0.3 2.2 -11.5 14 -7.7 7.7 -14.4 14 -15 14 -0.5 -0.1 -2.8 -1 -5 -2.2z"/>
  <path d="M83.6 390.7 c-0.9 -3.3 -0.8 -3.7 0.9 -3.7 0.9 0 1.5 0.9 1.5 2.4 0 3.3 -1.6 4.2 -2.4 1.3z"/>
  <path d="M101.4 370.6 c-0.3 -0.8 -0.4 -2.3 -0.1 -3.3 0.3 -1.1 0.5 -0.6 0.6 1.2 l0.1 2.9 4.5 -4.4 c4.3 -4.2 4.5 -4.3 4.5 -1.9 0 4.8 -8.1 9.4 -9.6 5.5z"/>
  <path d="M129 368.3 c0 -2.7 20 -22.3 22.7 -22.3 1.2 0 2.5 0.5 2.8 1 0.3 0.6 0 1 -0.7 1 -0.7 0 -5.8 4.5 -11.3 10.1 -11.1 11.2 -13.5 13 -13.5 10.2z"/>
  <path d="M103 353.4 c0 -16.8 -1 -21.2 -5.1 -23.5 -1.4 -0.7 -9.2 -1.5 -19.4 -1.9 -22.4 -1 -26.2 -2.7 -30.5 -13.6 -1 -2.7 -1.9 -4.2 -1.9 -3.4 -0.1 3 3.7 9.6 7.2 12.7 4.3 3.8 4.5 4.3 1.4 4.3 -1.3 0 -3.6 -1.3 -5 -2.8 -3 -3.1 -6.7 -11.8 -6.7 -15.7 0 -2.9 1.7 -4.2 2.3 -1.8 0.3 1 0.5 -27.7 0.6 -63.7 0.1 -39 0.5 -66.9 1.1 -69 1.4 -5 6.2 -10.5 11.5 -13 4.1 -2 6.6 -2.3 27 -2.8 l22.5 -0.5 0 36.9 c0 20.8 0.5 39.7 1.1 43.4 2.2 13.9 12.4 28.3 24.9 34.9 10.4 5.6 14.8 6.1 53.9 6.1 l35.3 0 -0.4 15.8 c-0.3 12.6 -0.8 16.4 -2.2 19.2 -2.6 4.9 -5.5 7.9 -10.1 10.3 -3.7 1.9 -6.4 2.1 -33.5 2.7 -24.4 0.6 -30.2 1 -33.5 2.4 -2.7 1.1 -10 7.8 -22.2 20.1 l-18.3 18.3 0 -15.4z"/>
  <path d="M118 355.4 c0 -2.2 24.4 -24.4 26.9 -24.4 0.6 0 1.1 0.7 1.1 1.5 0 0.9 -0.9 1.5 -2.5 1.5 -1.8 0 -2.5 0.5 -2.5 2 0 1.5 -0.7 2 -2.5 2 -1.7 0 -2.5 0.5 -2.5 1.8 0 2.3 -14 16.2 -16.3 16.2 -0.9 0 -1.7 -0.3 -1.7 -0.6z"/>
  <path d="M55.7 346.3 c-2.4 -0.6 -1.1 -2.3 1.9 -2.3 1.5 0 2.4 0.6 2.4 1.5 0 1.5 -0.9 1.7 -4.3 0.8z"/>
  <path d="M209 345.5 c0 -0.8 1.4 -1.7 3.5 -2.1 1.9 -0.3 3.5 -1 3.5 -1.4 0 -0.4 1.5 -1.4 3.3 -2.1 1.7 -0.7 3.8 -2.1 4.5 -3.1 0.7 -1 2.5 -1.8 3.9 -1.8 l2.6 0 -2.3 2.5 c-2.5 2.7 -15.2 9.5 -17.6 9.5 -0.8 0 -1.4 -0.7 -1.4 -1.5z"/>
  <path d="M321.5 343 c-4.3 -1.7 -9.7 -6.6 -36.5 -33.5 -25.7 -25.7 -31 -31.5 -29 -31.5 1.9 0 9.5 7.1 33.5 31 17.1 17.1 31.6 31 32.3 31 0.7 0 1.2 0.6 1.2 1.4 0 0.9 0.8 1.2 2.4 0.9 1.8 -0.4 2.7 -1.4 3.1 -3.4 0.6 -2.7 3.5 -4.2 3.5 -1.9 0 2.4 -3 8 -4.2 7.9 -0.7 0 -3.5 -0.9 -6.3 -1.9z"/>
  <path d="M96.3 333.5 c-0.3 -0.9 -0.3 -1.8 0 -2.2 1 -1 3.7 0.6 3.7 2.2 0 2 -2.9 2 -3.7 0z"/>
  <path d="M231 331.6 c0 -1.5 0.7 -2.9 1.5 -3.2 0.8 -0.4 1.5 -1.2 1.5 -2 0 -0.8 0.9 -1.4 2.1 -1.4 2 0 2 0.1 0.2 3.1 -1 1.7 -2.6 3.7 -3.5 4.6 -1.7 1.5 -1.8 1.4 -1.8 -1.1z"/>
  <path d="M214.3 324.5 c1.5 -1.3 3.9 -3.7 5.2 -5.2 l2.4 -2.8 0.1 2.8 c0 2 -0.6 3 -1.9 3.4 -1.1 0.3 -2.1 1.3 -2.4 2.4 -0.4 1.3 -1.4 1.9 -3.4 1.9 l-2.8 -0.1 2.8 -2.4z"/>
  <path d="M309.7 314.4 c-0.4 -0.4 -0.7 -1.5 -0.7 -2.5 0 -0.9 -0.9 -1.9 -2 -2.2 -1.4 -0.4 -2 -1.3 -2 -3.4 l0.1 -2.8 3.9 4.5 c2.2 2.5 4 4.8 4 5.3 0 1.8 1.9 0.4 2.3 -1.8 0.4 -2.3 0.4 -2.3 0.3 0.2 -0.1 2.2 -0.6 2.9 -2.6 3.1 -1.4 0.2 -2.9 0 -3.3 -0.4z"/>
  <path d="M311.9 309.8 c-1.8 -3.4 -43.8 -45.6 -47.9 -48.1 -3.5 -2.2 -4.2 -2.2 -58.5 -2.7 -49.3 -0.5 -55.5 -0.8 -59.6 -2.3 -6 -2.3 -10.6 -6.9 -13.8 -13.7 l-2.6 -5.5 -0.3 -84.9 c-0.2 -73.9 -0.1 -85.6 1.3 -91 2.8 -11.1 8.9 -17 20.8 -20.2 6.9 -1.8 202.4 -2.1 210.9 -0.3 10.1 2.2 17.3 7.6 21.2 15.9 2.1 4.4 2.1 5.6 2.4 90.4 0.3 95.1 0.5 92.2 -6.1 100.8 -2 2.7 -5.5 5.4 -9.2 7.3 -5.8 3 -6 3 -26.4 3.6 -31.5 0.8 -30.6 -0.1 -30.4 32.2 0.1 11.4 0 20.7 -0.3 20.7 -0.2 0 -0.9 -1 -1.5 -2.2z m-45.7 -83 c6.6 -5.3 12.8 -9.3 17.8 -11.3 3.8 -1.5 8.6 -1.9 30.9 -2.5 l26.4 -0.6 2.2 -2.7 c3.4 -3.8 3.7 -10.3 3.3 -69.2 -0.3 -47.6 -0.5 -52.3 -2 -54.8 -3.1 -4.7 -4.4 -4.9 -30.7 -4.8 -19.2 0 -25.9 0.4 -30.6 1.6 -7.2 1.9 -15.2 5.5 -21.7 9.6 l-4.7 3.1 -2.8 -2 c-5.6 -3.9 -17.5 -9.3 -24.1 -10.8 -5 -1.2 -12.6 -1.6 -30.2 -1.6 -27.1 -0.1 -29.1 0.4 -30.9 7 -2 6.9 -1.1 119.9 0.9 123.2 0.4 0.6 10.8 1.4 28.6 1.9 21.3 0.7 29 1.3 32.4 2.6 2.5 0.8 8.8 4.7 14 8.6 8.5 6.2 9.9 6.9 13.2 6.5 2.3 -0.2 5.4 -1.7 8 -3.8z"/>
  <path d="M247.6 224.4 c-4.2 -3 -7.6 -5.7 -7.6 -6 0 -0.2 1.1 -0.4 2.5 -0.4 1.6 0 2.5 0.6 2.5 1.5 0 0.8 0.9 1.5 2 1.5 1.1 0 2 0.7 2 1.5 0 0.8 0.9 1.5 2 1.5 1.1 0 2 0.5 2 1 0 0.6 0.7 1 1.5 1 0.8 0 1.5 0.9 1.5 2 0 1.1 -0.2 2 -0.4 2 -0.2 0 -3.8 -2.5 -8 -5.6z"/>
  <path d="M262.2 225.8 c0.2 -1.5 1.1 -2.4 2.6 -2.6 1.2 -0.2 2.2 -1 2.2 -1.8 0 -0.8 0.6 -1.4 1.4 -1.4 0.8 0 1.6 -0.5 1.8 -1.1 0.2 -0.6 1.5 -0.9 2.8 -0.7 2.2 0.3 2 0.6 -3 4.3 -8.3 6 -8.2 6 -7.8 3.3z"/>
  <path d="M235.9 216 l-2.4 -1.9 2.8 -0.1 c2 0 2.7 0.5 2.7 2 0 2.5 -0.2 2.5 -3.1 0z"/>
  <path d="M340 209 c0 -1.1 0.5 -2 1 -2 0.6 0 1 -0.7 1 -1.5 0 -0.8 0.7 -1.5 1.5 -1.5 2.1 0 1.9 2.2 -0.5 4.8 -2.6 2.7 -3 2.7 -3 0.2z"/>
  <path d="M270 200.1 c0 -0.9 2.4 -2.1 4.1 -2.1 0.5 0 0.9 0.7 0.9 1.5 0 0.9 -0.9 1.5 -2.5 1.5 -1.4 0 -2.5 -0.4 -2.5 -0.9z"/>
  <path d="M240.5 196.8 c-7.4 -3 -21.2 -4.8 -36.7 -4.8 l-13.8 0 0 -45.1 0 -45.1 18.3 0.4 c21 0.5 26.1 1.9 34.1 8.9 l4.6 4.1 0 41.9 c0 23 -0.3 41.9 -0.7 41.8 -0.5 -0.1 -3 -1 -5.8 -2.1z"/>
  <path d="M268 156.4 l0 -42.4 4.8 -3.4 c9.3 -6.9 13.5 -7.9 34.5 -8.4 l18.7 -0.4 0 44.4 0 44.5 -16.2 0.6 c-16.6 0.6 -26.4 2.1 -36.3 5.6 l-5.5 1.9 0 -42.4z"/>
  <path d="M268 110.1 c0 -1.2 0.6 -2.1 1.5 -2.1 0.8 0 1.5 -0.4 1.5 -1 0 -0.5 0.5 -1 1.1 -1 0.6 0 1.7 -0.7 2.5 -1.5 1.6 -1.6 6.4 -2.1 6.4 -0.7 0 0.5 -1.5 1.6 -3.2 2.5 -1.8 0.9 -4.8 2.6 -6.5 3.7 l-3.3 2.2 0 -2.1z"/>
  <path d="M237 105.8 c-3.7 -2.2 -2.9 -3.5 1.5 -2.4 1.6 0.4 2.5 1.3 2.5 2.6 0 2.4 0.2 2.4 -4 -0.2z"/>
  <path d="M253 97.1 c0 -0.6 -0.7 -1.1 -1.5 -1.1 -0.8 0 -1.5 -0.7 -1.5 -1.5 0 -0.8 -0.9 -1.5 -2 -1.5 -2.9 0 -9 -3.2 -9 -4.7 0 -2.2 2.2 -1.5 10.4 3.3 8.5 5 7.7 5 14.4 0.6 2 -1.3 2.2 -1.3 2.2 0.7 0 1.1 -0.6 2.1 -1.4 2.1 -0.8 0 -1.6 0.4 -1.8 0.9 -0.5 1.4 -9.8 2.6 -9.8 1.2z"/>
  <path d="M340.8 87.5 c-2.2 -2.9 -2.3 -4.5 -0.4 -4.5 1.6 0 4.6 3.7 4.6 5.7 0 2.1 -2.4 1.4 -4.2 -1.2z"/>
  <path d="M170 87.6 c0 -1.7 4.6 -5.6 6.6 -5.6 2.4 0 1.5 2.9 -1.1 3.6 -1.4 0.3 -2.5 1.2 -2.5 2 0 0.8 -0.7 1.4 -1.5 1.4 -0.8 0 -1.5 -0.6 -1.5 -1.4z"/>
  <path d="M275 87.1 c0 -0.8 5.2 -3.1 7.1 -3.1 1.9 0 0.8 2.8 -1.3 3.4 -3.3 0.8 -5.8 0.7 -5.8 -0.3z"/>
  <path d="M373 274.5 c0 -0.9 0.9 -1.5 2.5 -1.5 2.8 0 3.4 1.5 0.9 2.4 -2.5 1 -3.4 0.7 -3.4 -0.9z"/>
  <path d="M132.6 271.9 c-9.7 -6.1 -17.3 -15.7 -21 -26.5 -2 -5.9 -2 -6.4 0 -6.4 1.2 0 1.5 0.7 1.2 3 -0.3 2 0 3 0.9 3 0.7 0 1.5 1.7 1.9 4 0.4 2.2 1.2 4 1.9 4 1.4 0 2.5 2.2 2.5 5.1 0 1.1 0.7 1.9 1.8 1.9 2.1 0 6.2 4.2 6.2 6.4 0 1 0.9 1.6 2.5 1.6 1.6 0 2.5 0.6 2.5 1.5 0 0.8 0.9 1.5 1.9 1.5 3 0 5.1 1.1 5.1 2.6 0 2.1 -2 1.7 -7.4 -1.7z"/>
  <path d="M316 266.6 c0 -0.8 1 -2.2 2.3 -3.1 1.9 -1.4 2.2 -1.4 2.5 0 0.4 1.6 -2 4.5 -3.7 4.5 -0.6 0 -1.1 -0.6 -1.1 -1.4z"/>
  <path d="M262 264 c0 -1.7 0.3 -1.9 1.9 -1 3.2 1.6 3.4 3 0.7 3 -1.9 0 -2.6 -0.5 -2.6 -2z"/>
  <path d="M138 256.5 c0 -0.8 -0.9 -1.5 -2 -1.5 -1.3 0 -2 -0.7 -2 -2 0 -1.1 -0.7 -2 -1.5 -2 -1 0 -1.5 -1 -1.5 -2.7 l0.1 -2.8 2.8 3.4 c1.5 1.9 4.3 4.7 6.2 6.2 l3.4 2.8 -2.7 0.1 c-1.8 0 -2.8 -0.5 -2.8 -1.5z"/>
  <path d="M378.2 251.3 c2.4 -2.7 5 -6.3 5.7 -8 1.5 -3.7 3.1 -4.3 3.1 -1.3 0 2.4 -2.1 7 -3.2 7 -0.4 0 -0.8 0.6 -0.8 1.3 0 2.1 -4.4 5.7 -7 5.7 -2.1 0 -1.9 -0.4 2.2 -4.7z"/>
  <path d="M109.6 235.7 c-0.9 -3.3 -0.8 -3.7 0.9 -3.7 0.9 0 1.5 0.9 1.5 2.4 0 3.3 -1.6 4.2 -2.4 1.3z"/>
  <path d="M43.6 179.1 c-1.1 -1.7 0.3 -8.9 2 -10.5 0.8 -0.8 1.4 -1.9 1.4 -2.4 0 -1.2 4.4 -5.2 5.8 -5.2 0.7 0 1.2 -0.4 1.2 -1 0 -0.5 1.2 -1 2.7 -1 2.5 0 2.3 0.3 -3.1 5.3 -4.5 4.1 -6.1 6.4 -7.5 10.6 -1.1 3.4 -2.1 5 -2.5 4.2z"/>
  <path d="M386 62.8 c-1.4 -6.9 -5 -12.8 -10.2 -17.2 -4.3 -3.5 -4.3 -3.6 -1.5 -3.6 2 0 2.7 0.5 2.7 2 0 1.5 0.7 2 2.5 2 1.6 0 2.5 0.6 2.5 1.5 0 0.8 0.5 1.5 1.1 1.5 1.4 0 4.6 7.6 5.4 13.1 1 6.7 -1.1 7.2 -2.5 0.7z"/>
  <path d="M110.4 56.3 c1.5 -6.5 7.1 -15.8 13.1 -21.9 6.1 -6.2 10.8 -9 20.5 -12 5.6 -1.7 6 -1.7 6 -0.1 0 1.2 -9.3 4.7 -12.5 4.7 -0.8 0 -1.5 0.4 -1.5 0.8 0 0.5 -1.2 1.5 -2.7 2.3 -1.6 0.8 -3.6 2.4 -4.6 3.7 -1 1.2 -2.4 2.2 -3.2 2.2 -0.7 0 -1.5 0.9 -1.8 2 -0.3 1.1 -1.2 2 -2.1 2 -0.9 0 -1.6 0.8 -1.6 1.9 0 1.1 -0.4 2.1 -0.8 2.3 -0.9 0.4 -6.2 12 -6.2 13.7 0 0.6 -0.7 1.1 -1.6 1.1 -1.3 0 -1.5 -0.6 -1 -2.7z"/>
  <path d="M129 54.6 c0 -1.4 0.7 -3.1 1.5 -4 0.8 -0.8 1.5 -1.9 1.5 -2.4 0 -1.7 4.7 -5.2 7 -5.2 2.1 0 1.9 0.4 -2.2 4.8 -2.5 2.7 -4.9 5.8 -5.2 7 -1 3 -2.6 2.8 -2.6 -0.2z"/>
  <path d="M366.7 41.3 c-2.4 -0.6 -1.1 -2.3 1.9 -2.3 1.5 0 2.4 0.6 2.4 1.5 0 1.5 -0.9 1.7 -4.3 0.8z"/>
  <path d="M151.5 22 c-0.3 -0.5 -0.3 -1 0.2 -1 0.4 0 1.8 -0.3 3.1 -0.6 1.6 -0.5 2.2 -0.2 2.2 1 0 1.8 -4.5 2.3 -5.5 0.6z"/>
 </g>
 <g fill="#000000">
  <path d="M89.3 401.8 c-2.3 -1.2 -4.5 -2.9 -4.9 -3.7 -0.4 -0.9 -0.9 -12.5 -1.2 -25.7 l-0.4 -24.1 -12.2 -0.6 c-6.6 -0.3 -13.7 -1.1 -15.7 -1.8 -6.8 -2.2 -17.1 -10.1 -21.4 -16.4 -7.9 -11.6 -7.6 -8.2 -7.3 -87.5 l0.3 -70.5 3.1 -6.6 c5.4 -11.4 13.8 -19 25.2 -22.8 5.3 -1.8 9.7 -2.2 30.2 -2.8 l24 -0.6 0 -38.1 c0 -41.6 0.4 -44.9 5.8 -55 3.8 -7.1 13.9 -17.1 19.8 -19.7 13.2 -5.7 5 -5.3 118.8 -5.6 114.9 -0.4 114.8 -0.4 126.6 5.4 11.2 5.6 21.3 18.9 24.5 32.4 2.2 9.7 2.2 174.6 0 183.4 -4.3 16.8 -14.5 28.3 -30.8 34.8 -4.3 1.7 -8.2 2.2 -22.7 2.6 l-17.5 0.6 -0.5 29 c-0.4 24.4 -0.8 29.6 -2.2 32.8 -0.9 2 -2.2 3.7 -2.7 3.7 -0.6 0 -3.4 -0.9 -6.3 -2 -4.7 -1.7 -8.9 -5.6 -36.3 -33 l-31 -31 -5.6 0 -5.7 0 -0.4 18.3 c-0.3 18 -0.4 18.3 -3.5 25 -4.4 9.3 -11.8 16.9 -21.2 21.5 l-7.5 3.7 -29.3 0.5 -29.2 0.5 -28.5 27.8 c-15.6 15.2 -28.8 27.7 -29.3 27.6 -0.4 0 -2.7 -1 -5 -2.1z m49.2 -66.5 c2.8 -2.2 6.4 -4.3 8 -4.7 1.7 -0.4 16.1 -1 32 -1.5 31.7 -0.8 32.1 -0.9 38.4 -7.2 6 -6 6.5 -7.9 6.9 -26.1 l0.4 -16.8 -34.8 0 c-38.2 0 -44.3 -0.7 -54.3 -5.7 -6.5 -3.3 -15.7 -12.2 -19.3 -18.5 -6.2 -11.2 -6.2 -10.6 -6.6 -55.5 l-0.3 -41.3 -21 0 c-12.7 0 -22.8 0.5 -25.7 1.2 -6 1.5 -14.5 9.6 -16.1 15.3 -0.7 2.7 -1.1 25.1 -1.1 68.6 0 71.2 0 71.4 6.2 78.5 5.3 6 7.5 6.6 26.3 7.5 9.3 0.4 18.2 1.2 19.6 1.7 3.8 1.5 4.9 6.7 4.9 24.8 l0.1 15.9 15.7 -16.1 c8.6 -8.9 18 -17.9 20.7 -20.1z m176.5 -41.2 c0 -10.9 0.3 -21.9 0.6 -24.5 1.1 -7.6 2.3 -8 25.4 -8.7 23.5 -0.7 29 -2 35.7 -8.2 2.4 -2.2 5.7 -6.4 7.1 -9.2 l2.7 -5 0 -88.5 0 -88.5 -2.8 -5.7 c-3.3 -6.6 -8.9 -11.9 -15.6 -14.5 -4.3 -1.7 -11.1 -1.8 -107.6 -2.1 -76.4 -0.2 -104.4 0 -108.5 0.9 -15.4 3.3 -22.2 12 -24 30.6 -1.3 13.3 -1.3 148.3 0 159.8 1.8 15.6 8 24.3 19.8 28 5.1 1.6 11.3 1.9 58.7 2.2 33.5 0.2 54 0.8 55.7 1.4 2.9 1.2 50.8 49 50.8 50.8 0 0.6 0.5 1.1 1 1.1 0.6 0 1 -7.3 1 -19.9z"/>
  <path d="M247.5 224.3 c-16.4 -12 -17.5 -12.3 -50.7 -13.2 -13.5 -0.3 -25 -0.9 -25.3 -1.3 -1.4 -1.4 -2.5 -43.6 -2.2 -83.2 l0.3 -39.8 2.8 -2.5 2.9 -2.5 26.6 0.4 c30.3 0.5 32.7 0.9 47.5 9.5 7.8 4.4 8 4.5 10.5 2.9 7.1 -4.7 21.1 -10.6 27.1 -11.6 8.2 -1.3 50 -1.3 53.4 0 1.4 0.5 2.9 1.7 3.4 2.7 1.3 2.3 2.7 98.4 1.7 111.5 -1 14.3 -0.2 13.8 -23.3 13.8 -20.8 0 -33 1.2 -39.8 3.8 -2.4 1 -8.2 4.6 -12.9 8 -11.6 8.6 -12.3 8.7 -22 1.5z m0.5 -67.1 l0 -42.8 -3.2 -3.1 c-4.4 -4.1 -12 -8 -18.8 -9.4 -3 -0.6 -12.7 -1.2 -21.5 -1.3 l-16 -0.1 0 46 0 46 17.6 0.7 c19.3 0.7 25.8 1.6 33.4 4.6 9.4 3.7 8.5 7.8 8.5 -40.6z m27.2 40.4 c10.8 -3.5 20.3 -4.8 36.6 -5 l14.7 -0.2 0 -45.9 0 -46 -8 -0.3 c-4.4 -0.2 -13.3 0.2 -19.8 0.7 -12.7 1.1 -18.3 2.9 -27.2 9.1 l-4.5 3.1 0 43.4 c0 23.9 0.2 43.5 0.5 43.5 0.2 0 3.7 -1.1 7.7 -2.4z"/>
 </g>
</svg>